<svg xmlns="http://www.w3.org/2000/svg" width="256" height="256" viewBox="0 0 100 100"><rect width="100" height="100" rx="20" fill="#5522aa"></rect><path d="M32.34 64.03L32.34 64.03Q36.18 64.03 38.01 62.44Q39.84 60.86 39.84 58.36L39.84 58.36Q39.84 56.16 38.44 54.82Q37.04 53.48 33.99 52.56L33.99 52.56L29.41 51.16Q27.28 50.49 25.54 49.60Q23.80 48.72 22.58 47.53Q21.36 46.34 20.72 44.72Q20.08 43.11 20.08 40.97L20.08 40.97Q20.08 36.15 23.65 33.38Q27.22 30.60 33.32 30.60L33.32 30.60Q35.82 30.60 37.95 31.00Q40.09 31.39 41.64 32.10Q43.20 32.80 44.08 33.74Q44.97 34.69 44.97 35.79L44.97 35.79Q44.97 36.82 44.45 37.59Q43.93 38.35 43.20 38.84L43.20 38.84Q41.67 37.68 39.20 36.85Q36.73 36.03 33.74 36.03L33.74 36.03Q30.39 36.03 28.56 37.37Q26.73 38.71 26.73 40.97L26.73 40.97Q26.73 42.80 28.01 43.93Q29.29 45.06 32.22 45.91L32.22 45.91L35.76 46.95Q40.88 48.47 43.72 51.13Q46.55 53.78 46.55 58.36L46.55 58.36Q46.55 60.80 45.61 62.84Q44.66 64.88 42.89 66.35Q41.12 67.81 38.47 68.61Q35.82 69.40 32.46 69.40L32.46 69.40Q29.66 69.40 27.34 68.91Q25.02 68.42 23.34 67.63Q21.67 66.84 20.75 65.80Q19.84 64.76 19.84 63.60L19.84 63.60Q19.84 62.38 20.57 61.53Q21.30 60.67 22.28 60.25L22.28 60.25Q23.74 61.59 26.27 62.81Q28.80 64.03 32.34 64.03ZM77.79 36.88L68.57 36.88L68.57 68.42Q68.15 68.61 67.32 68.76Q66.50 68.91 65.59 68.91L65.59 68.91Q63.69 68.91 62.90 68.21Q62.11 67.51 62.11 65.86L62.11 65.86L62.11 36.88L51.31 36.88Q51.01 36.46 50.79 35.79Q50.58 35.12 50.58 34.26L50.58 34.26Q50.58 32.92 51.22 32.22Q51.86 31.52 52.96 31.52L52.96 31.52L79.49 31.52Q79.74 31.88 79.95 32.55Q80.16 33.22 80.16 34.02L80.16 34.02Q80.16 36.88 77.79 36.88L77.79 36.88Z" fill="#fff"></path></svg>